<?xml version="1.0" encoding="UTF-8" standalone="no"?>
<svg
   width="64"
   height="64"
   shape-rendering="geometricPrecision"
   text-rendering="geometricPrecision"
   image-rendering="optimizeQuality"
   fill-rule="evenodd"
   clip-rule="evenodd"
   viewBox="0 0 640 640"
   version="1.1"
   id="svg1"
   sodipodi:docname="logos--twitterX.svg"
   inkscape:version="1.4 (e7c3feb1, 2024-10-09)"
   xml:space="preserve"
   xmlns:inkscape="http://www.inkscape.org/namespaces/inkscape"
   xmlns:sodipodi="http://sodipodi.sourceforge.net/DTD/sodipodi-0.dtd"
   xmlns="http://www.w3.org/2000/svg"
   xmlns:svg="http://www.w3.org/2000/svg"><defs
     id="defs1" /><sodipodi:namedview
     id="namedview1"
     pagecolor="#ffffff"
     bordercolor="#000000"
     borderopacity="0.25"
     inkscape:showpageshadow="2"
     inkscape:pageopacity="0.0"
     inkscape:pagecheckerboard="0"
     inkscape:deskcolor="#d1d1d1"
     inkscape:zoom="1.8348016"
     inkscape:cx="48.506606"
     inkscape:cy="68.399765"
     inkscape:window-width="1440"
     inkscape:window-height="800"
     inkscape:window-x="0"
     inkscape:window-y="25"
     inkscape:window-maximized="1"
     inkscape:current-layer="svg1" /><path
     id="path1"
     d="m 439.91294,62.397032 c -71.28296,0 -129.07283,57.789998 -129.07283,129.068038 0,10.11763 1.1412,19.96912 3.34068,29.4183 C 206.90984,215.49893 111.80152,164.11221 48.139346,86.021909 37.031336,105.08493 30.667884,127.25991 30.667884,150.91112 c 0,44.78102 22.789202,84.28768 57.420639,107.43511 a 128.52854,128.52854 0 0 1 -58.46701,-16.14671 c -0.0066,0.54066 -0.0065,1.08006 -0.0048,1.62235 0,62.53661 44.488339,114.70494 103.532817,126.5625 a 129.2658,129.2658 0 0 1 -58.284605,2.21275 c 16.42364,51.27869 64.093465,88.59279 120.572295,89.63723 -44.17401,34.61669 -99.830824,55.25592 -160.300675,55.25592 -10.419907,0 -20.693087,-0.61285 -30.7910558,-1.80476 57.1202448,36.62204 124.9645508,57.98704 197.8547308,57.98704 237.41409,0 367.23674,-196.67471 367.23674,-367.23674 0,-5.59824 -0.12055,-11.16433 -0.36959,-16.69869 a 262.46364,262.46364 0 0 0 64.40442,-66.81874 258.04009,258.04009 0 0 1 -74.13374,20.32737 c 26.65186,-15.97391 47.11751,-41.27313 56.75346,-71.412209 A 258.53159,258.53159 0 0 1 534.12927,103.15738 C 510.5837,78.07343 477.03876,62.397032 439.91294,62.397032 Z M 241.85661,245.35781 h 61.56772 l 53.37436,77.67121 66.83314,-77.67121 h 18.23946 l -76.96564,89.45486 h -0.005 l 83.70943,121.81067 h -61.56291 l -56.37426,-82.02468 -70.57224,82.02468 H 241.8564 l 80.71914,-93.80833 z m 24.81524,13.72759 65.07161,93.06915 8.17895,11.69244 v 0.005 l 55.7023,79.66797 h 28.01674 L 355.37793,345.89083 347.19899,334.19358 294.6838,259.0855 Z"
     style="fill:#ffffff;fill-opacity:1;stroke-width:2.45752" /></svg>
