<?xml version="1.0" encoding="UTF-8" standalone="no"?>
<svg
   width="64"
   height="64"
   shape-rendering="geometricPrecision"
   text-rendering="geometricPrecision"
   image-rendering="optimizeQuality"
   fill-rule="evenodd"
   clip-rule="evenodd"
   viewBox="0 0 640 640"
   version="1.1"
   id="svg1"
   sodipodi:docname="logos--instagram-icon.svg"
   inkscape:version="1.4 (e7c3feb1, 2024-10-09)"
   xml:space="preserve"
   xmlns:inkscape="http://www.inkscape.org/namespaces/inkscape"
   xmlns:sodipodi="http://sodipodi.sourceforge.net/DTD/sodipodi-0.dtd"
   xmlns="http://www.w3.org/2000/svg"
   xmlns:svg="http://www.w3.org/2000/svg"><defs
     id="defs1" /><sodipodi:namedview
     id="namedview1"
     pagecolor="#ffffff"
     bordercolor="#000000"
     borderopacity="0.25"
     inkscape:showpageshadow="2"
     inkscape:pageopacity="0.0"
     inkscape:pagecheckerboard="0"
     inkscape:deskcolor="#d1d1d1"
     inkscape:zoom="5.5202002"
     inkscape:cx="26.991775"
     inkscape:cy="37.226911"
     inkscape:window-width="1440"
     inkscape:window-height="800"
     inkscape:window-x="0"
     inkscape:window-y="25"
     inkscape:window-maximized="1"
     inkscape:current-layer="svg1" /><path
     fill="#0a0a08"
     d="m 321.79714,59.851099 c 85.11814,0 95.19972,0.323776 128.81412,1.855439 31.08155,1.419582 47.96222,6.612302 59.19692,10.978165 14.87829,5.782961 25.49782,12.691626 36.65281,23.846616 11.15498,11.154991 18.06365,21.774531 23.84664,36.652831 4.36586,11.23469 9.55858,28.11535 10.97814,59.19442 1.53166,33.61689 1.85542,43.69847 1.85542,128.8166 0,85.11814 -0.32376,95.2022 -1.85542,128.81661 -1.41956,31.08154 -6.61228,47.95973 -10.97814,59.19441 -5.78299,14.87831 -12.69166,25.50034 -23.84664,36.65529 -11.15499,11.155 -21.77452,18.06367 -36.65281,23.84413 -11.2347,4.36591 -28.11537,9.56111 -59.19692,10.9782 -33.60942,1.53412 -43.69099,1.85789 -128.81412,1.85789 -85.12309,0 -95.20716,-0.32377 -128.81658,-1.85789 -31.08155,-1.41962 -47.95973,-6.61229 -59.19442,-10.9782 -14.8783,-5.78046 -25.50033,-12.68913 -36.655315,-23.84413 C 85.975836,534.704 79.067172,524.0845 73.286691,509.20619 c -4.365862,-11.2322 -9.56106,-28.11287 -10.97816,-59.19441 -1.534153,-33.61441 -1.857917,-43.696 -1.857917,-128.81661 0,-85.12063 0.323764,-95.19971 1.857917,-128.81411 1.419592,-31.08156 6.612298,-47.96222 10.97816,-59.19691 5.780481,-14.8783 12.689145,-25.49784 23.844134,-36.652831 11.157485,-11.15748 21.777015,-18.063655 36.655315,-23.846616 11.23219,-4.365863 28.11287,-9.558583 59.19442,-10.978165 33.61439,-1.531663 43.69598,-1.855439 128.81658,-1.855439 m 0,-57.441099 c -86.57756,0 -97.43368,0.366105 -131.4341,1.917694 -33.93319,1.54909 -57.10738,6.938559 -77.38261,14.818528 C 92.015314,27.292679 74.238074,38.193637 56.515606,55.916107 38.793145,73.638566 27.894677,91.415819 19.748222,112.37844 11.865761,132.65615 6.47879,155.83035 4.929694,189.76104 3.378106,223.76147 3.012002,234.61761 3.012002,321.19517 c 0,86.57757 0.366104,97.43369 1.917692,131.43413 1.549096,33.93318 6.936067,57.10737 14.818528,77.38262 8.143965,20.96262 19.044923,38.74232 36.767384,56.46481 17.722468,17.72245 35.499708,28.62094 56.464824,36.76735 20.27773,7.88248 43.44942,13.26949 77.38011,14.81854 34.00292,1.55158 44.85904,1.91774 131.4366,1.91774 86.57757,0 97.43371,-0.36616 131.43414,-1.91774 33.9307,-1.54905 57.10487,-6.93606 77.38012,-14.81854 20.96509,-8.14394 38.74234,-19.0449 56.46483,-36.76735 17.72245,-17.72249 28.6234,-35.49971 36.76987,-56.46481 7.87996,-20.27774 13.26943,-43.44944 14.81854,-77.38014 1.5516,-34.00292 1.91768,-44.85904 1.91768,-131.43661 0,-86.57756 -0.36608,-97.4337 -1.91768,-131.43413 -1.54911,-33.93069 -6.93858,-57.10489 -14.81854,-77.38012 C 615.69963,91.415819 604.79868,73.638566 587.07623,55.916107 569.35374,38.193637 551.57649,27.290186 530.61388,19.146222 510.33615,11.266253 487.16198,5.876784 453.23128,4.327694 419.23085,2.776104 408.37471,2.41 321.79714,2.41 m 0,155.08401 c -90.41044,0 -163.70114,73.29567 -163.70114,163.70116 0,90.40548 73.2907,163.70116 163.70114,163.70116 90.40799,0 163.70117,-73.29071 163.70117,-163.70116 0,-90.40797 -73.29318,-163.70116 -163.70117,-163.70116 m 0,269.96372 c -58.68635,0 -106.26253,-47.57621 -106.26253,-106.26256 0,-58.68636 47.57618,-106.26255 106.26253,-106.26255 58.68636,0 106.26256,47.57619 106.26256,106.26255 0,58.68635 -47.5762,106.26256 -106.26256,106.26256 M 530.21789,151.02615 c 0,21.12948 -17.12473,38.25422 -38.25421,38.25422 -21.12948,0 -38.25423,-17.12474 -38.25423,-38.25422 0,-21.12947 17.12724,-38.25421 38.25423,-38.25421 21.12698,0 38.25421,17.12723 38.25421,38.25421"
     id="path1-2"
     style="stroke-width:2.49052;fill:#ffffff" /></svg>
