<?xml version="1.0" encoding="UTF-8" standalone="no"?>
<svg
   width="64"
   height="64"
   shape-rendering="geometricPrecision"
   text-rendering="geometricPrecision"
   image-rendering="optimizeQuality"
   fill-rule="evenodd"
   clip-rule="evenodd"
   viewBox="0 0 640 640"
   version="1.1"
   id="svg1"
   sodipodi:docname="military-tank-icon.svg"
   inkscape:version="1.4 (e7c3feb1, 2024-10-09)"
   xml:space="preserve"
   xmlns:inkscape="http://www.inkscape.org/namespaces/inkscape"
   xmlns:sodipodi="http://sodipodi.sourceforge.net/DTD/sodipodi-0.dtd"
   xmlns="http://www.w3.org/2000/svg"
   xmlns:svg="http://www.w3.org/2000/svg"><defs
     id="defs1" /><sodipodi:namedview
     id="namedview1"
     pagecolor="#ffffff"
     bordercolor="#000000"
     borderopacity="0.25"
     inkscape:showpageshadow="2"
     inkscape:pageopacity="0.0"
     inkscape:pagecheckerboard="0"
     inkscape:deskcolor="#d1d1d1"
     inkscape:zoom="5.9174003"
     inkscape:cx="24.166018"
     inkscape:cy="32.024198"
     inkscape:window-width="1440"
     inkscape:window-height="800"
     inkscape:window-x="0"
     inkscape:window-y="25"
     inkscape:window-maximized="1"
     inkscape:current-layer="svg1" /><path
     d="m 90.29969,368.02154 h 3.927095 L 139.1817,296.97211 c 2.32526,-3.66874 6.25235,-5.68396 10.33447,-5.68396 v -0.0516 h 31.1584 l 25.52612,-84.79428 c 1.60185,-5.32225 6.45905,-8.73262 11.67795,-8.73262 v 0 h 133.98632 c 5.16723,0 9.55938,3.20368 11.36791,7.69917 l 18.03364,37.1524 159.82246,-85.6727 -4.18547,-7.80252 c -1.44682,-2.73863 -1.65351,-5.7873 -0.87842,-8.47426 l 0.10338,-0.31003 c 0.87843,-2.58362 2.68696,-4.90887 5.32225,-6.30402 l 56.52952,-30.27999 c 2.68696,-1.44682 5.73562,-1.65351 8.42258,-0.82675 2.73864,0.82675 5.16724,2.68696 6.61407,5.42559 l 0.15501,0.31003 27.28298,50.94891 c 1.44683,2.73864 1.65352,5.7873 0.87843,8.47426 v 0 c -0.82676,2.73864 -2.68696,5.16723 -5.4256,6.61406 l -56.47784,30.27997 c -2.73862,1.44683 -5.7873,1.65352 -8.47426,0.87843 v 0 c -2.73863,-0.82676 -5.16723,-2.68696 -6.61405,-5.42558 l -4.18546,-7.75086 -161.21761,86.29277 5.94232,12.29802 h 47.64188 c 3.82374,0 7.23412,1.75685 9.45603,4.49549 l 67.48402,72.28956 h 26.81794 c 22.94251,0 43.76645,9.3527 58.85477,24.49269 15.08831,15.08831 24.49267,35.91226 24.49267,58.85476 0,22.94251 -9.35268,43.76646 -24.49267,58.85477 -15.08832,15.08832 -35.91226,24.49268 -58.85477,24.49268 H 90.29969 c -22.942509,0 -43.766451,-9.35269 -58.854769,-24.49268 -15.139989,-15.14004 -24.4926775,-35.96399 -24.4926775,-58.9065 0,-22.9425 9.3526885,-43.76645 24.4926775,-58.85477 15.088318,-15.08832 35.91226,-24.44101 58.854769,-24.44101 z m 32.76025,0 h 373.07413 l -48.88202,-52.34405 h -49.96712 -207.5677 -33.53534 z m -4.90887,51.87901 c 17.3619,0 31.46844,14.10654 31.46844,31.46844 0,17.3619 -14.10654,31.46844 -31.46844,31.46844 -17.3619,0 -31.468443,-14.05487 -31.468443,-31.46844 0,-17.41357 14.106543,-31.46844 31.468443,-31.46844 z m 398.39357,0 c 17.36187,0 31.46841,14.10654 31.46841,31.46844 0,17.3619 -14.10654,31.46844 -31.46841,31.46844 -17.36191,0 -31.46845,-14.05487 -31.46845,-31.46844 0,-17.41357 14.05488,-31.46844 31.46845,-31.46844 z m -132.79786,0 c 17.36189,0 31.46844,14.10654 31.46844,31.46844 0,17.3619 -14.05487,31.46844 -31.46844,31.46844 -17.3619,0 -31.46845,-14.05487 -31.46845,-31.46844 0,-17.41357 14.05488,-31.46844 31.46845,-31.46844 z m -132.79786,0 c 17.3619,0 31.46844,14.10654 31.46844,31.46844 0,17.3619 -14.10654,31.46844 -31.46844,31.46844 -17.3619,0 -31.46843,-14.05487 -31.46843,-31.46844 0,-17.41357 14.10653,-31.46844 31.46843,-31.46844 z m 305.38338,-27.438 H 524.24378 100.89251 90.29969 c -16.173436,0 -30.900047,6.61406 -41.596215,17.31023 -10.696169,10.69617 -17.310225,25.3711 -17.310225,41.59621 0,16.17344 6.614056,30.90005 17.310225,41.59621 10.696168,10.69617 25.371107,17.31024 41.596215,17.31024 H 556.3323 c 16.17344,0 30.90004,-6.61407 41.59621,-17.31024 10.69617,-10.69616 17.31023,-25.3711 17.31023,-41.59621 0,-16.17344 -6.61406,-30.90004 -17.31023,-41.59621 -10.69617,-10.69617 -25.42277,-17.31023 -41.59621,-17.31023 z"
     id="path1-0"
     style="stroke-width:5.16723;fill:#ffffff" /></svg>
