<?xml version="1.0" encoding="UTF-8" standalone="no"?>
<svg
   id="Layer_2"
   data-name="Layer 2"
   viewBox="0 0 409.56 164.08"
   version="1.1"
   sodipodi:docname="RNVS_logo.svg"
   inkscape:version="1.4 (e7c3feb1, 2024-10-09)"
   xmlns:inkscape="http://www.inkscape.org/namespaces/inkscape"
   xmlns:sodipodi="http://sodipodi.sourceforge.net/DTD/sodipodi-0.dtd"
   xmlns="http://www.w3.org/2000/svg"
   xmlns:svg="http://www.w3.org/2000/svg">
  <sodipodi:namedview
     id="namedview5"
     pagecolor="#ffffff"
     bordercolor="#000000"
     borderopacity="0.25"
     inkscape:showpageshadow="2"
     inkscape:pageopacity="0.0"
     inkscape:pagecheckerboard="0"
     inkscape:deskcolor="#d1d1d1"
     inkscape:zoom="0.7512261"
     inkscape:cx="163.73233"
     inkscape:cy="29.951036"
     inkscape:window-width="1440"
     inkscape:window-height="800"
     inkscape:window-x="0"
     inkscape:window-y="25"
     inkscape:window-maximized="1"
     inkscape:current-layer="Layer_2" />
  <defs
     id="defs1">
    <style
       id="style1">
      .cls-1 {
        fill: #231f20;
        stroke-width: 0px;
      }
    </style>
  </defs>
  <g
     id="Final"
     style="fill:#ffffff;fill-opacity:1">
    <g
       id="Logo_FINAL"
       data-name="Logo FINAL"
       style="fill:#ffffff;fill-opacity:1">
      <path
         id="R_path"
         data-name="R path"
         class="cls-1"
         d="m0,3.31h28.98c19.32,0,32.4.75,39.24,2.24,6.84,1.49,12.41,5.3,16.73,11.43,4.31,6.13,6.47,15.9,6.47,29.32,0,12.25-1.52,20.49-4.57,24.7-3.05,4.22-9.05,6.74-17.99,7.59,8.1,2.01,13.55,4.7,16.34,8.07,2.79,3.37,4.52,6.47,5.2,9.29.68,2.82,1.02,10.59,1.02,23.29v41.53h-38.03v-52.33c0-8.43-.67-13.65-1.99-15.66-1.33-2.01-4.81-3.02-10.46-3.02v71H0V3.31Zm40.95,26.94v35.01c4.6,0,7.83-.63,9.68-1.9,1.85-1.26,2.77-5.36,2.77-12.3v-8.66c0-4.99-.89-8.27-2.67-9.82-1.79-1.56-5.04-2.33-9.77-2.33Z"
         style="fill:#ffffff;fill-opacity:1" />
      <g
         id="g5"
         style="fill:#ffffff;fill-opacity:1">
        <polygon
           class="cls-1"
           points="163.21 37.58 152.97 37.58 163.21 74.21 163.21 37.58"
           id="polygon1"
           style="fill:#ffffff;fill-opacity:1" />
        <polygon
           class="cls-1"
           points="116.88 12.51 103.76 3.31 103.76 160.77 116.88 151.57 116.88 12.51"
           id="polygon2"
           style="fill:#ffffff;fill-opacity:1" />
        <polygon
           class="cls-1"
           points="143.4 89.19 143.4 132.96 152.62 126.5 152.98 126.5 143.4 89.19"
           id="polygon3"
           style="fill:#ffffff;fill-opacity:1" />
        <path
           class="cls-1"
           d="m251.86,113.4c1.96-28.22,4.05-53.5,6.24-75.83h-13.17c3.06,28.78,5.38,54.07,6.94,75.83Z"
           id="path3"
           style="fill:#ffffff;fill-opacity:1" />
        <polygon
           class="cls-1"
           points="210.95 37.58 187.24 37.58 187.24 126.5 224.31 126.5 210.95 37.58"
           id="polygon4"
           style="fill:#ffffff;fill-opacity:1" />
        <polygon
           class="cls-1"
           points="293.95 12.9 280.36 141.79 307.84 160.77 307.84 3.31 293.95 12.9"
           id="polygon5"
           style="fill:#ffffff;fill-opacity:1" />
      </g>
      <path
         id="S_path"
         data-name="S path"
         class="cls-1"
         d="m406.15,50.96h-38.03v-11.67c0-5.45-.49-8.91-1.46-10.41-.97-1.49-2.59-2.24-4.86-2.24-2.47,0-4.33,1.01-5.59,3.02-1.26,2.01-1.9,5.06-1.9,9.15,0,5.25.71,9.21,2.13,11.87,1.36,2.66,5.21,5.87,11.57,9.63,18.23,10.82,29.71,19.7,34.44,26.63,4.73,6.94,7.1,18.12,7.1,33.55,0,11.22-1.31,19.49-3.94,24.8-2.63,5.32-7.7,9.77-15.22,13.37-7.52,3.6-16.28,5.4-26.26,5.4-10.96,0-20.31-2.08-28.06-6.22-7.75-4.15-12.82-9.43-15.22-15.85-2.4-6.42-3.6-15.53-3.6-27.33v-10.31h38.03v19.16c0,5.9.53,9.69,1.6,11.38,1.07,1.69,2.97,2.53,5.69,2.53s4.75-1.07,6.08-3.21c1.33-2.14,1.99-5.32,1.99-9.53,0-9.27-1.26-15.33-3.79-18.19-2.59-2.85-8.98-7.62-19.16-14.3-10.18-6.74-16.92-11.64-20.23-14.69-3.31-3.05-6.05-7.26-8.22-12.64-2.17-5.38-3.26-12.25-3.26-20.62,0-12.06,1.54-20.88,4.62-26.45,3.08-5.58,8.06-9.94,14.93-13.08,6.87-3.14,15.17-4.72,24.9-4.72,10.63,0,19.69,1.72,27.18,5.15,7.49,3.44,12.45,7.77,14.88,12.98,2.43,5.22,3.65,14.09,3.65,26.6v6.22Z"
         style="fill:#ffffff;fill-opacity:1" />
    </g>
  </g>
</svg>
